#!OML:ASF F:\VICON\USERDATA\INSTALL\rory3\rory3.ASF
:FULLY-SPECIFIED
:DEGREES
27
root 0.8342943821803572 18.02262104047007 -1.9080101274786472 -3.9758322740135537 -1.5311555828389993 1.2146699677734594
lfemur -5.782685713863299 -2.635188089827599 -26.229558106439946
ltibia 30.142376690984044
lfoot -14.876590844365722 2.3356782854797267
ltoes -0.06711335349642855
rfemur -27.246035201948207 -2.8982735720161643 21.118109650856468
rtibia 78.96586547472924
rfoot -4.112395617213394 -7.468663845831498
rtoes 8.59042538776627
lowerback 11.686264614409815 0.2712054551284834 -2.028257869845678
upperback 0.42500121595030854 0.1712725123554606 0.6362243104263186
thorax -6.047295877362141 0.13878583181453713 1.901424299209948
lowerneck -16.02877748232686 -2.758239837226779 -1.6424325515014626
upperneck 21.519151740734877 -3.5276484607640564 0.5933890180718175
head 9.477847567593242 -1.7249878766310875 0.0017070052716010586
lclavicle -8.277996806483001e-16 -7.069381951075164e-16
lhumerus -31.41947313175583 1.0590876588821723 81.6391014170128
lradius 24.520920190857446
lwrist 4.968098980754098
lhand -27.98706056160556 22.500644938666397
lfingers 7.125020000000057
lthumb -1.3731220154732662 52.46587393876193
rclavicle -8.277996806483001e-16 -7.069381951075164e-16
rhumerus -30.646092305870173 -20.314579876379312 -78.80971837238036
rradius 26.914659661805764
rwrist 3.0727022862266935
rhand -17.301215139772324 29.96782540487728
rfingers 7.125020000000057
rthumb 8.945376295897686 -6.402351607690035
28
root 0.8041764268913827 17.96640609558113 -0.32024684301252115 -3.528484140966519 -0.9113376445835173 1.7611777198825354
lfemur -2.9572630943397815 -2.624011108466444 -26.77482344496427
ltibia 28.47888868227225
lfoot -16.774164010924363 3.1260076078449446
ltoes -0.32278637171362234
rfemur -29.988077460361982 -2.5641008235853575 20.854331628692172
rtibia 72.06413978201121
rfoot -7.094149170058065 -8.190552933780776
rtoes 4.173153987089492
lowerback 11.727618684264197 -0.017482534150084383 -2.684562014678338
upperback 0.5003370399468534 -0.30165004483528823 0.6995290501185915
thorax -5.914050737532063 -0.07337038092178849 2.483989927280645
lowerneck -15.968826905092426 -2.8207423405934873 -1.8344781141403315
upperneck 21.277943551376087 -3.5879914184013866 0.7738393983993206
head 9.39277537393893 -1.7560011975168206 0.0889612221661053
lclavicle -5.13081892794749e-16 -4.632513067570317e-16
lhumerus -29.572136637585565 -0.7666682177155382 81.78226144095228
lradius 26.63540610832967
lwrist 5.625623402458951
lhand -28.185669063650373 23.353916989048905
lfingers 7.125020000000058
lthumb -1.5649530005508758 53.31900764141058
rclavicle -5.13081892794749e-16 -4.632513067570317e-16
rhumerus -31.21914938864454 -19.457250448611447 -78.79048139034461
rradius 28.030133513757008
rwrist 2.3325116707196996
rhand -17.456005210347865 30.16612542795304
rfingers 7.125020000000058
rthumb 8.796004419130352 -5.963423444146343
29
root 0.8079899919043562 17.930627341897285 1.153018459107427 -2.9537023493113246 -0.3500722935423025 2.1925783870304856
lfemur 0.11612012806610927 -2.531059204459236 -27.354934827445057
ltibia 25.69333176376535
lfoot -17.87941976009033 3.1345122252621094
ltoes -0.36239813181645
rfemur -32.31008474140314 -1.6802582567938402 20.284420255398928
rtibia 60.00598235086352
rfoot -7.682695867964647 -9.905894017810224
rtoes 0.2820097177636489
lowerback 11.649242355835542 -0.3620468660305358 -3.311411232610122
upperback 0.494650744453543 -0.8368179010436886 0.7807640447805207
thorax -5.84622156516478 -0.31625638727228755 2.9998657566479343
lowerneck -16.146851260903514 -2.869272666332724 -1.9519880850392644
upperneck 20.95720410491913 -3.640105955046371 0.8564183102332554
head 9.31880584193117 -1.7775862145504056 0.13170871495181796
lclavicle -6.113479799532919e-16 -5.393390281740921e-16
lhumerus -27.650970268465784 -3.179255541271318 81.73500720144031
lradius 29.185117947951618
lwrist 6.655163136432691
lhand -28.18778952883965 24.24475873875922
lfingers 7.125020000000058
lthumb -1.5670322735405464 54.208128160406446
rclavicle -6.113479799532919e-16 -5.393390281740921e-16
rhumerus -32.51453388803531 -19.072233706380338 -78.8854791594574
rradius 28.86139135766576
rwrist 1.5988350792518498
rhand -17.4542606390156 30.107471585455418
rfingers 7.125020000000058
rthumb 8.797584040986274 -5.948016821915527
30
root 0.816524113856323 17.891806510010795 1.8154651352641427 -2.271348164193915 0.07433015651121755 2.6247203814545883
lfemur 4.028229793066458 -2.294016185607803 -27.70720245177943
ltibia 22.55921718380384
lfoot -18.4030588679631 2.9990898644399886
ltoes -0.27086972113696817
rfemur -33.323893635201 0.033095111312296144 19.465961152188548
rtibia 46.49411013319903
rfoot -7.05703029819313 -12.23831365605207
rtoes -2.79082469437789
lowerback 11.342521967919875 -0.6052334948236472 -3.91584854716646
upperback 0.4736949685069743 -1.2250955402592538 0.8443681577561778
thorax -5.655845156001687 -0.49148177060721376 3.4912698281362906
lowerneck -16.374707772649536 -2.8730700957208075 -1.9842306267435124
upperneck 20.537548857910835 -3.6461941370231226 0.9542962824661622
head 9.219491250703483 -1.7711386041854078 0.16857286243006359
lclavicle -5.09126169222532e-16 -4.601883902130258e-16
lhumerus -25.819419647984017 -4.9075512508476615 81.54574914149951
lradius 31.28559153352172
lwrist 7.784613412998141
lhand -28.577803290769253 24.49375296890869
lfingers 7.125020000000058
lthumb -1.9437456861173543 54.45123639419779
rclavicle -5.09126169222532e-16 -4.601883902130258e-16
rhumerus -33.438744831348565 -18.926744785623345 -78.59104154178718
rradius 28.998968753309136
rwrist 1.9369847266569247
rhand -17.49893222710542 30.466875018219874
rfingers 7.125020000000058
rthumb 8.754581568337569 -5.986655788438833
